<svg xmlns="http://www.w3.org/2000/svg" viewBox="0 0 168.4652 60.75164"><title>logo-black</title><path d="M150.01183,83.20659a8.15409,8.15409,0,0,1-6.378-2.77113,10.03655,10.03655,0,0,1-2.47543-6.94229V65.15055a9.53683,9.53683,0,0,1,2.47543-6.80416,8.35262,8.35262,0,0,1,6.378-2.63451h18.19906v5.22386H150.01183a3.3794,3.3794,0,0,0-2.80545,1.44788,5.39862,5.39862,0,0,0-1.09873,3.35985v7.48587a5.28385,5.28385,0,0,0,1.09873,3.333,3.40023,3.40023,0,0,0,2.80545,1.42022h18.19906v5.224H150.01183Z" transform="translate(-99.321 -46.80668)" style="fill:#5ba7d9"/><path d="M192.34065,83.15125h-11.1612a8.57186,8.57186,0,0,1-6.48843-2.72164,9.54423,9.54423,0,0,1-2.58272-6.84511V55.71441h4.94755V73.5845a4.33887,4.33887,0,0,0,1.18242,3.07829,3.85647,3.85647,0,0,0,2.94118,1.26457h11.1612a3.86,3.86,0,0,0,2.94284-1.26457,4.34547,4.34547,0,0,0,1.18242-3.07829V55.71441h4.94755V73.19925a10.35557,10.35557,0,0,1-2.47377,6.928A8.39976,8.39976,0,0,1,192.34065,83.15125Z" transform="translate(-99.321 -46.80668)" style="fill:#5ba7d9"/><path d="M225.534,83.15125H214.37271a8.30491,8.30491,0,0,1-6.48843-2.91429,10.24239,10.24239,0,0,1-2.58259-7.03771V46.80668h4.94755V73.5845a4.334,4.334,0,0,0,1.18573,3.07829,3.87409,3.87409,0,0,0,2.94947,1.26457h11.19488a3.38093,3.38093,0,0,0,2.78363-1.26457,4.914,4.914,0,0,0,1.0199-3.18889V65.66656a5.4248,5.4248,0,0,0-1.07526-3.354,3.3835,3.3835,0,0,0-2.84053-1.42951H214.181l-0.02679-5.16862,11.271-.05521a8.1945,8.1945,0,0,1,6.46,2.77685,10.21516,10.21516,0,0,1,2.447,7.01018v8.52261a9.27579,9.27579,0,0,1-2.41854,6.59814A8.331,8.331,0,0,1,225.534,83.15125Z" transform="translate(-99.321 -46.80668)" style="fill:#5ba7d9"/><path d="M258.81149,72.58206H248.30356l-0.05524-5.224h10.56317c2.37861-.04988,4.07691-0.49381,4.07691-3.51217,0-2.69179-1.7307-3.3721-4.08928-3.3721l-11.79891.07935a3.358,3.358,0,0,0-2.78529,1.29212,5.03124,5.03124,0,0,0-1.0199,3.2166v8.13736a5.3297,5.3297,0,0,0,1.102,3.35386,3.40306,3.40306,0,0,0,2.81208,1.42951h19.4885v5.224H247.15431a8.21158,8.21158,0,0,1-6.43307-2.777,10.06614,10.06614,0,0,1-2.47377-6.95571V64.897a9.87439,9.87439,0,0,1,2.41841-6.90047,8.2017,8.2017,0,0,1,6.378-2.66717h12.0423c7.51151,0,8.70005,5.584,8.70005,8.51661C267.7862,67.07959,266.5261,72.58206,258.81149,72.58206Z" transform="translate(-99.321 -46.80668)" style="fill:#5ba7d9"/><path d="M132.29421,83.15125v-17.87a4.35054,4.35054,0,0,0-1.18254-3.07921,3.866,3.866,0,0,0-2.94271-1.26457H117.00762a3.86269,3.86269,0,0,0-2.94105,1.26457,4.34326,4.34326,0,0,0-1.18242,3.07921v17.87h-4.94755v-17.87a9.54376,9.54376,0,0,1,2.58259-6.84523,8.5724,8.5724,0,0,1,6.48843-2.72164H128.169a8.30791,8.30791,0,0,1,6.48843,2.91426,10.23643,10.23643,0,0,1,2.58438,7.03788V83.15125h-4.94755Z" transform="translate(-99.321 -46.80668)" style="fill:#6d6e71"/><path d="M207.40259,107.55832a4.38257,4.38257,0,0,1-3.42007-1.50988,5.40165,5.40165,0,0,1-1.3466-3.73082V92.54728h2.66474v9.62211a2.9246,2.9246,0,0,0,.57775,1.80637,1.814,1.814,0,0,0,1.52417.76961h8.85173v2.813h-8.85173Z" transform="translate(-99.321 -46.80668)" style="fill:#6d6e71"/><path d="M233.65507,107.55832h-2.66474v-6.27743h-8.34925c-0.88748,0-2.0972.00576-2.0972,1.71756,0,1.72345,1.203,1.74692,2.0972,1.74692h6.44506v2.813h-6.44506c-2.48819,0-4.84167-1.10626-4.84167-4.75847,0-3.54612,2.36687-4.331,4.84167-4.331h8.17167c0-2.27786-.58477-3.10855-1.92434-3.10855h-8.94218v-2.813h8.922c4.04336,0,4.78682,2.84767,4.78682,5.2407v9.77034Z" transform="translate(-99.321 -46.80668)" style="fill:#6d6e71"/><path d="M246.44428,107.52811h-6.00942a4.473,4.473,0,0,1-3.4938-1.56843,5.51426,5.51426,0,0,1-1.39175-3.79029V87.95819h2.66474v14.41887a2.33543,2.33543,0,0,0,.63809,1.65811,2.08836,2.08836,0,0,0,1.58948.68082h6.02613a1.82128,1.82128,0,0,0,1.499-.68082,2.64492,2.64492,0,0,0,.5493-1.71756v-4.204a2.9266,2.9266,0,0,0-.57775-1.80632,1.82523,1.82523,0,0,0-1.52914-.76963l-6.2944-.02715-0.01429-2.803,6.28522,0.01735a4.41383,4.41383,0,0,1,3.47862,1.49562,5.50237,5.50237,0,0,1,1.31649,3.77432V102.584a4.99552,4.99552,0,0,1-1.30131,3.55312A4.485,4.485,0,0,1,246.44428,107.52811Z" transform="translate(-99.321 -46.80668)" style="fill:#6d6e71"/><path d="M263.43745,107.4989H253.6379v-2.813h9.38419q1.33409,0,1.3332-1.80558,0-1.59892-1.18407-1.59854H256.805a3.33691,3.33691,0,0,1-2.7233-1.33244,4.64345,4.64345,0,0,1-1.00663-3.01974,4.79148,4.79148,0,0,1,1.03674-3.07921,3.28014,3.28014,0,0,1,2.69319-1.30312h9.79968v2.813h-9.38432a1.2622,1.2622,0,0,0-1.3332,1.50986q0,1.59915,1.15575,1.59869h6.39454a3.29389,3.29389,0,0,1,2.69319,1.28789,4.732,4.732,0,0,1,1.03674,3.06415,5.499,5.499,0,0,1-.91772,3.19736A3.21178,3.21178,0,0,1,263.43745,107.4989Z" transform="translate(-99.321 -46.80668)" style="fill:#6d6e71"/><path d="M99.321,83.15125V56.04443h4.70033V83.15125H99.321Z" transform="translate(-99.321 -46.80668)" style="fill:#6d6e71"/></svg>