<svg xmlns="http://www.w3.org/2000/svg" viewBox="0 0 153.1926 55.24406"><title>logo</title><path d="M145.41634,81.66044a7.41486,7.41486,0,0,1-5.79975-2.51991,9.12666,9.12666,0,0,1-2.251-6.31292V65.24132a8.67225,8.67225,0,0,1,2.251-6.18731,7.59539,7.59539,0,0,1,5.79975-2.39567h16.54918v4.75028H145.41634a3.073,3.073,0,0,0-2.55111,1.31662,4.90919,4.90919,0,0,0-.99912,3.05526v6.80722a4.80483,4.80483,0,0,0,.99912,3.03088,3.092,3.092,0,0,0,2.55111,1.29147h16.54918v4.75037H145.41634Z" transform="translate(-99.321 -48.56045)" style="fill:#5ba7d9"/><path d="M183.90774,81.61011H173.75839a7.79476,7.79476,0,0,1-5.90021-2.4749,8.679,8.679,0,0,1-2.34857-6.22455v-16.25h4.499v16.25a3.94552,3.94552,0,0,0,1.07522,2.79922,3.50685,3.50685,0,0,0,2.67454,1.14993h10.14936a3.51005,3.51005,0,0,0,2.676-1.14993,3.95152,3.95152,0,0,0,1.07522-2.79922v-16.25h4.499V72.56034a9.41676,9.41676,0,0,1-2.24951,6.29993A7.63826,7.63826,0,0,1,183.90774,81.61011Z" transform="translate(-99.321 -48.56045)" style="fill:#5ba7d9"/><path d="M214.09191,81.61011H203.94244A7.552,7.552,0,0,1,198.04223,78.96a9.31384,9.31384,0,0,1-2.34846-6.39969V48.56045h4.499V72.91067a3.94106,3.94106,0,0,0,1.07824,2.79922,3.52288,3.52288,0,0,0,2.68208,1.14993h10.18a3.07443,3.07443,0,0,0,2.53128-1.14993,4.46847,4.46847,0,0,0,.92744-2.89979V65.71054a4.933,4.933,0,0,0-.97778-3.04994,3.07676,3.07676,0,0,0-2.583-1.29992H203.76809l-0.02436-4.7,10.24923-.05021a7.4516,7.4516,0,0,1,5.87434,2.52511,9.28908,9.28908,0,0,1,2.22515,6.37465v7.75a8.43488,8.43488,0,0,1-2.19928,6A7.57571,7.57571,0,0,1,214.09191,81.61011Z" transform="translate(-99.321 -48.56045)" style="fill:#5ba7d9"/><path d="M244.35252,71.9991h-9.55531L234.747,67.24873h9.60554c2.163-.04536,3.70731-0.449,3.70731-3.19376,0-2.44776-1.5738-3.06639-3.71856-3.06639l-10.72925.07215a3.05359,3.05359,0,0,0-2.53279,1.175,4.57512,4.57512,0,0,0-.92744,2.925v7.39965a4.84652,4.84652,0,0,0,1.00214,3.04981,3.09455,3.09455,0,0,0,2.55715,1.29992h17.72173v4.75037H233.75215a7.46714,7.46714,0,0,1-5.84986-2.52522,9.15357,9.15357,0,0,1-2.24951-6.32512V65.0107a8.97921,8.97921,0,0,1,2.19916-6.27489,7.45816,7.45816,0,0,1,5.79975-2.42537h10.95058c6.83054,0,7.91133,5.07773,7.91133,7.74452C252.5136,66.99548,251.36773,71.9991,244.35252,71.9991Z" transform="translate(-99.321 -48.56045)" style="fill:#5ba7d9"/><path d="M129.30494,81.61011V65.3602a3.95613,3.95613,0,0,0-1.07534-2.80005,3.51554,3.51554,0,0,0-2.67593-1.14993H115.4042a3.51251,3.51251,0,0,0-2.67442,1.14993,3.94951,3.94951,0,0,0-1.07522,2.80005V81.61011h-4.499V65.3602a8.67855,8.67855,0,0,1,2.34846-6.22466,7.79525,7.79525,0,0,1,5.90021-2.4749h10.14947a7.55474,7.55474,0,0,1,5.90021,2.65006,9.30842,9.30842,0,0,1,2.35008,6.39985V81.61011h-4.499Z" transform="translate(-99.321 -48.56045)" style="fill:#fff"/><path d="M197.60421,103.80451a3.98526,3.98526,0,0,1-3.11-1.373,4.912,4.912,0,0,1-1.22452-3.39259V90.15433h2.42316v8.74979a2.65947,2.65947,0,0,0,.52537,1.64261,1.64959,1.64959,0,0,0,1.386.69984h8.04926v2.55794h-8.04926Z" transform="translate(-99.321 -48.56045)" style="fill:#fff"/><path d="M221.47671,103.80451h-2.42316V98.09617h-7.59233c-0.807,0-1.90707.00524-1.90707,1.56185,0,1.56721,1.0939,1.58855,1.90707,1.58855H217.322v2.55794h-5.86076c-2.26262,0-4.40274-1.006-4.40274-4.32708,0-3.22464,2.1523-3.93838,4.40274-3.93838h7.43085c0-2.07135-.53175-2.82673-1.74989-2.82673h-8.1315v-2.558h8.11317c3.6768,0,4.35286,2.58951,4.35286,4.76559v8.88459Z" transform="translate(-99.321 -48.56045)" style="fill:#fff"/><path d="M233.10648,103.777h-5.46462a4.06746,4.06746,0,0,1-3.17706-1.42624,5.01436,5.01436,0,0,1-1.26558-3.44667V85.98128h2.42316V99.093a2.12371,2.12371,0,0,0,.58024,1.50779,1.899,1.899,0,0,0,1.44538.6191h5.47981a1.65617,1.65617,0,0,0,1.36314-.6191,2.40514,2.40514,0,0,0,.4995-1.56185V95.21607a2.66128,2.66128,0,0,0-.52537-1.64257,1.65976,1.65976,0,0,0-1.39052-.69986l-5.72377-.02469L227.33782,90.3l5.71541,0.01578a4.01369,4.01369,0,0,1,3.16326,1.36,5.00354,5.00354,0,0,1,1.19714,3.43215v4.17315a4.54264,4.54264,0,0,1-1.18334,3.231A4.07838,4.07838,0,0,1,233.10648,103.777Z" transform="translate(-99.321 -48.56045)" style="fill:#fff"/><path d="M248.55909,103.75047h-8.91115v-2.558h8.53345q1.21315,0,1.21234-1.64189,0-1.454-1.07673-1.45362h-5.78908a3.03439,3.03439,0,0,1-2.47641-1.21164,4.22249,4.22249,0,0,1-.91537-2.746,4.3571,4.3571,0,0,1,.94275-2.80005,2.98277,2.98277,0,0,1,2.449-1.185h8.91127v2.558h-8.53357a1.14777,1.14777,0,0,0-1.21234,1.373q0,1.45417,1.051,1.45376h5.81483a2.99527,2.99527,0,0,1,2.449,1.17113,4.303,4.303,0,0,1,.94275,2.78637,5.00049,5.00049,0,0,1-.83452,2.90749A2.92061,2.92061,0,0,1,248.55909,103.75047Z" transform="translate(-99.321 -48.56045)" style="fill:#fff"/><path d="M99.321,81.61011V56.96073h4.27421V81.61011H99.321Z" transform="translate(-99.321 -48.56045)" style="fill:#fff"/></svg>